
<svg width="148" height="40" viewBox="0 0 148 40" fill="none" xmlns="http://www.w3.org/2000/svg">
<g clip-path="url(#clip0_2_134)">
<path d="M146.356 0H1.64444C0.736243 0 0 0.89543 0 2V38C0 39.1046 0.736243 40 1.64444 40H146.356C147.264 40 148 39.1046 148 38V2C148 0.89543 147.264 0 146.356 0Z" fill="#6046FF"/>
<path d="M20.0023 10C14.4799 10 10 14.4753 10 20.0023H15C15.0116 17.2376 17.2515 15.0023 20.0092 15.0023C22.767 15.0023 25.0092 17.2423 25.0092 20.0023H30.0092C30.0069 14.4799 25.5317 10 20.0023 10Z" fill="white"/>
<path d="M25.0069 20.0023H15.0092C15.0092 22.166 16.387 24.0129 18.3125 24.7041V24.7896H11.2298C12.9242 27.8941 16.2228 30 20.0139 30C23.8049 30 27.0966 27.8941 28.798 24.7896H21.7037V24.7041C23.6315 24.0083 25.0069 22.166 25.0069 20.0023Z" fill="white"/>
<path d="M135.597 17.5078C136.328 17.5078 136.896 17.6973 137.302 18.0762C137.712 18.4512 137.917 19.0547 137.917 19.8867V24.1172H136.54V20.1445C136.54 19.6406 136.437 19.2637 136.23 19.0137C136.023 18.7598 135.703 18.6328 135.269 18.6328C134.64 18.6328 134.203 18.8262 133.957 19.2129C133.714 19.5996 133.593 20.1602 133.593 20.8945V24.1172H132.216V17.6309H133.289L133.482 18.5098H133.558C133.699 18.2832 133.873 18.0977 134.08 17.9531C134.29 17.8047 134.525 17.6934 134.783 17.6191C135.044 17.5449 135.316 17.5078 135.597 17.5078Z" fill="white"/>
<path d="M130.242 17.6309V24.1172H129.158L128.97 23.2441H128.894C128.757 23.4668 128.583 23.6523 128.373 23.8008C128.162 23.9453 127.927 24.0527 127.669 24.123C127.412 24.1973 127.14 24.2344 126.855 24.2344C126.367 24.2344 125.949 24.1523 125.601 23.9883C125.257 23.8203 124.994 23.5625 124.81 23.2148C124.626 22.8672 124.535 22.418 124.535 21.8672V17.6309H125.917V21.6094C125.917 22.1133 126.019 22.4902 126.222 22.7402C126.429 22.9902 126.749 23.1152 127.183 23.1152C127.601 23.1152 127.933 23.0293 128.179 22.8574C128.425 22.6855 128.599 22.4316 128.701 22.0957C128.806 21.7598 128.859 21.3477 128.859 20.8594V17.6309H130.242Z" fill="white"/>
<path d="M123.099 22.2656C123.099 22.6914 122.996 23.0508 122.789 23.3438C122.582 23.6367 122.279 23.8594 121.88 24.0117C121.486 24.1602 121.001 24.2344 120.427 24.2344C119.974 24.2344 119.583 24.2012 119.255 24.1348C118.931 24.0723 118.624 23.9746 118.335 23.8418V22.6523C118.644 22.7969 118.99 22.9219 119.373 23.0273C119.759 23.1328 120.124 23.1855 120.468 23.1855C120.921 23.1855 121.248 23.1152 121.447 22.9746C121.646 22.8301 121.746 22.6387 121.746 22.4004C121.746 22.2598 121.705 22.1348 121.623 22.0254C121.544 21.9121 121.396 21.7969 121.177 21.6797C120.962 21.5586 120.646 21.4141 120.228 21.2461C119.818 21.082 119.472 20.918 119.191 20.7539C118.91 20.5898 118.697 20.3926 118.552 20.1621C118.408 19.9277 118.335 19.6289 118.335 19.2656C118.335 18.6914 118.562 18.2559 119.015 17.959C119.472 17.6582 120.076 17.5078 120.826 17.5078C121.224 17.5078 121.599 17.5488 121.951 17.6309C122.306 17.709 122.654 17.8242 122.994 17.9766L122.56 19.0137C122.267 18.8848 121.972 18.7793 121.675 18.6973C121.382 18.6113 121.083 18.5684 120.779 18.5684C120.423 18.5684 120.152 18.623 119.964 18.7324C119.781 18.8418 119.689 18.998 119.689 19.2012C119.689 19.3535 119.734 19.4824 119.824 19.5879C119.914 19.6934 120.068 19.7988 120.287 19.9043C120.509 20.0098 120.818 20.1406 121.212 20.2969C121.599 20.4453 121.933 20.6016 122.214 20.7656C122.499 20.9258 122.718 21.123 122.871 21.3574C123.023 21.5918 123.099 21.8945 123.099 22.2656Z" fill="white"/>
<path d="M114.591 17.5078C115.361 17.5078 115.978 17.7891 116.443 18.3516C116.912 18.9141 117.146 19.75 117.146 20.8594C117.146 21.5938 117.037 22.2129 116.818 22.7168C116.603 23.2168 116.3 23.5957 115.91 23.8535C115.523 24.1074 115.072 24.2344 114.556 24.2344C114.228 24.2344 113.943 24.1914 113.701 24.1055C113.458 24.0195 113.251 23.9082 113.08 23.7715C112.908 23.6309 112.763 23.4785 112.646 23.3145H112.564C112.583 23.4707 112.601 23.6445 112.617 23.8359C112.636 24.0234 112.646 24.1953 112.646 24.3516V26.9941H111.263V17.6309H112.388L112.582 18.5273H112.646C112.767 18.3438 112.914 18.1738 113.085 18.0176C113.261 17.8613 113.472 17.7383 113.718 17.6484C113.968 17.5547 114.259 17.5078 114.591 17.5078ZM114.222 18.6328C113.843 18.6328 113.539 18.709 113.308 18.8613C113.082 19.0098 112.915 19.2344 112.81 19.5352C112.708 19.8359 112.654 20.2129 112.646 20.666V20.8594C112.646 21.3398 112.695 21.748 112.792 22.084C112.894 22.416 113.06 22.6699 113.29 22.8457C113.525 23.0176 113.841 23.1035 114.24 23.1035C114.576 23.1035 114.853 23.0117 115.072 22.8281C115.294 22.6445 115.46 22.3828 115.57 22.043C115.679 21.7031 115.734 21.3027 115.734 20.8418C115.734 20.1426 115.609 19.5996 115.359 19.2129C115.113 18.8262 114.734 18.6328 114.222 18.6328Z" fill="white"/>
<path d="M109.212 15.5508V21.0938C109.212 21.6914 109.085 22.2266 108.832 22.6992C108.582 23.1719 108.203 23.5469 107.695 23.8242C107.187 24.0977 106.548 24.2344 105.779 24.2344C104.681 24.2344 103.845 23.9473 103.271 23.373C102.701 22.7949 102.415 22.0273 102.415 21.0703V15.5508H103.822V20.9473C103.822 21.6621 103.99 22.1895 104.326 22.5293C104.662 22.8691 105.164 23.0391 105.832 23.0391C106.292 23.0391 106.667 22.959 106.957 22.7988C107.249 22.6348 107.464 22.3965 107.601 22.084C107.742 21.7676 107.812 21.3867 107.812 20.9414V15.5508H109.212Z" fill="white"/>
<path d="M94.9799 17.5078C95.7104 17.5078 96.2788 17.6973 96.685 18.0762C97.0952 18.4512 97.3003 19.0547 97.3003 19.8867V24.1172H95.9233V20.1445C95.9233 19.6406 95.8198 19.2637 95.6128 19.0137C95.4057 18.7598 95.0854 18.6328 94.6518 18.6328C94.0229 18.6328 93.5854 18.8262 93.3393 19.2129C93.0971 19.5996 92.976 20.1602 92.976 20.8945V24.1172H91.5991V17.6309H92.6714L92.8647 18.5098H92.9409C93.0815 18.2832 93.2553 18.0977 93.4624 17.9531C93.6733 17.8047 93.9077 17.6934 94.1655 17.6191C94.4272 17.5449 94.6987 17.5078 94.9799 17.5078Z" fill="white"/>
<path d="M90.0171 20.8594C90.0171 21.3984 89.9467 21.877 89.8061 22.2949C89.6655 22.7129 89.4604 23.0664 89.1909 23.3555C88.9214 23.6406 88.5971 23.8594 88.2182 24.0117C87.8393 24.1602 87.4116 24.2344 86.935 24.2344C86.4897 24.2344 86.0815 24.1602 85.7104 24.0117C85.3393 23.8594 85.0171 23.6406 84.7436 23.3555C84.4741 23.0664 84.2651 22.7129 84.1167 22.2949C83.9682 21.877 83.894 21.3984 83.894 20.8594C83.894 20.1445 84.0171 19.5391 84.2632 19.043C84.5132 18.543 84.8686 18.1621 85.3296 17.9004C85.7905 17.6387 86.3393 17.5078 86.976 17.5078C87.5737 17.5078 88.101 17.6387 88.5581 17.9004C89.0151 18.1621 89.3725 18.543 89.6303 19.043C89.8882 19.543 90.0171 20.1484 90.0171 20.8594ZM85.312 20.8594C85.312 21.332 85.3686 21.7363 85.4819 22.0723C85.5991 22.4082 85.7788 22.666 86.021 22.8457C86.2632 23.0215 86.5757 23.1094 86.9585 23.1094C87.3413 23.1094 87.6538 23.0215 87.896 22.8457C88.1382 22.666 88.3159 22.4082 88.4292 22.0723C88.5424 21.7363 88.5991 21.332 88.5991 20.8594C88.5991 20.3867 88.5424 19.9863 88.4292 19.6582C88.3159 19.3262 88.1382 19.0742 87.896 18.9023C87.6538 18.7266 87.3393 18.6387 86.9526 18.6387C86.3823 18.6387 85.9663 18.8301 85.7046 19.2129C85.4428 19.5957 85.312 20.1445 85.312 20.8594Z" fill="white"/>
<path d="M73.7573 17.6309H75.2573L76.5874 21.334C76.646 21.502 76.6987 21.668 76.7456 21.832C76.7964 21.9922 76.8393 22.1504 76.8745 22.3066C76.9135 22.4629 76.9448 22.6191 76.9682 22.7754H77.0034C77.0424 22.5723 77.0971 22.3457 77.1674 22.0957C77.2417 21.8418 77.3237 21.5879 77.4135 21.334L78.6909 17.6309H80.1733L77.3901 25.0078C77.2299 25.4297 77.0327 25.7891 76.7983 26.0859C76.5678 26.3867 76.2944 26.6133 75.978 26.7656C75.6616 26.9219 75.3003 27 74.894 27C74.6987 27 74.5288 26.9883 74.3842 26.9648C74.2397 26.9453 74.1167 26.9238 74.0151 26.9004V25.7988C74.0971 25.8184 74.2007 25.8359 74.3257 25.8516C74.4507 25.8672 74.5796 25.875 74.7124 25.875C74.9585 25.875 75.1714 25.8262 75.351 25.7285C75.5307 25.6309 75.6831 25.4922 75.8081 25.3125C75.9331 25.1367 76.0366 24.9355 76.1186 24.709L76.3471 24.0996L73.7573 17.6309Z" fill="white"/>
<path d="M73.1538 20.8594C73.1538 21.3984 73.0835 21.877 72.9428 22.2949C72.8022 22.7129 72.5971 23.0664 72.3276 23.3555C72.0581 23.6406 71.7339 23.8594 71.3549 24.0117C70.976 24.1602 70.5483 24.2344 70.0717 24.2344C69.6264 24.2344 69.2182 24.1602 68.8471 24.0117C68.476 23.8594 68.1538 23.6406 67.8803 23.3555C67.6108 23.0664 67.4018 22.7129 67.2534 22.2949C67.1049 21.877 67.0307 21.3984 67.0307 20.8594C67.0307 20.1445 67.1538 19.5391 67.3999 19.043C67.6499 18.543 68.0053 18.1621 68.4663 17.9004C68.9272 17.6387 69.476 17.5078 70.1128 17.5078C70.7104 17.5078 71.2378 17.6387 71.6948 17.9004C72.1518 18.1621 72.5092 18.543 72.7671 19.043C73.0249 19.543 73.1538 20.1484 73.1538 20.8594ZM68.4487 20.8594C68.4487 21.332 68.5053 21.7363 68.6186 22.0723C68.7358 22.4082 68.9155 22.666 69.1577 22.8457C69.3999 23.0215 69.7124 23.1094 70.0952 23.1094C70.478 23.1094 70.7905 23.0215 71.0327 22.8457C71.2749 22.666 71.4526 22.4082 71.5659 22.0723C71.6792 21.7363 71.7358 21.332 71.7358 20.8594C71.7358 20.3867 71.6792 19.9863 71.5659 19.6582C71.4526 19.3262 71.2749 19.0742 71.0327 18.9023C70.7905 18.7266 70.476 18.6387 70.0893 18.6387C69.519 18.6387 69.103 18.8301 68.8413 19.2129C68.5796 19.5957 68.4487 20.1445 68.4487 20.8594Z" fill="white"/>
<path d="M65.4428 24.1172H64.06V15H65.4428V24.1172Z" fill="white"/>
<path d="M59.9116 17.5078C60.6811 17.5078 61.2983 17.7891 61.7632 18.3516C62.2319 18.9141 62.4663 19.75 62.4663 20.8594C62.4663 21.5938 62.3569 22.2129 62.1382 22.7168C61.9233 23.2168 61.6206 23.5957 61.2299 23.8535C60.8432 24.1074 60.3921 24.2344 59.8764 24.2344C59.5483 24.2344 59.2632 24.1914 59.021 24.1055C58.7788 24.0195 58.5717 23.9082 58.3999 23.7715C58.228 23.6309 58.0835 23.4785 57.9663 23.3145H57.8842C57.9038 23.4707 57.9214 23.6445 57.937 23.8359C57.9565 24.0234 57.9663 24.1953 57.9663 24.3516V26.9941H56.5835V17.6309H57.7085L57.9018 18.5273H57.9663C58.0874 18.3438 58.2339 18.1738 58.4057 18.0176C58.5815 17.8613 58.7924 17.7383 59.0385 17.6484C59.2885 17.5547 59.5796 17.5078 59.9116 17.5078ZM59.5424 18.6328C59.1635 18.6328 58.8589 18.709 58.6284 18.8613C58.4018 19.0098 58.2358 19.2344 58.1303 19.5352C58.0288 19.8359 57.9741 20.2129 57.9663 20.666V20.8594C57.9663 21.3398 58.0151 21.748 58.1128 22.084C58.2143 22.416 58.3803 22.6699 58.6108 22.8457C58.8452 23.0176 59.1616 23.1035 59.56 23.1035C59.896 23.1035 60.1733 23.0117 60.3921 22.8281C60.6147 22.6445 60.7807 22.3828 60.8901 22.043C60.9995 21.7031 61.0542 21.3027 61.0542 20.8418C61.0542 20.1426 60.9292 19.5996 60.6792 19.2129C60.4331 18.8262 60.0542 18.6328 59.5424 18.6328Z" fill="white"/>
<path d="M52.2534 17.5078C52.8315 17.5078 53.3276 17.627 53.7417 17.8652C54.1557 18.1035 54.4741 18.4414 54.6967 18.8789C54.9194 19.3164 55.0307 19.8398 55.0307 20.4492V21.1875H50.7007C50.7163 21.8164 50.8842 22.3008 51.2046 22.6406C51.5288 22.9805 51.9819 23.1504 52.5639 23.1504C52.978 23.1504 53.3491 23.1113 53.6772 23.0332C54.0092 22.9512 54.351 22.832 54.7026 22.6758V23.7949C54.3784 23.9473 54.0483 24.0586 53.7124 24.1289C53.3764 24.1992 52.9741 24.2344 52.5053 24.2344C51.8686 24.2344 51.3081 24.1113 50.8237 23.8652C50.3432 23.6152 49.9663 23.2441 49.6928 22.752C49.4233 22.2598 49.2885 21.6484 49.2885 20.918C49.2885 20.1914 49.4116 19.5742 49.6577 19.0664C49.9038 18.5586 50.2495 18.1719 50.6948 17.9062C51.1401 17.6406 51.6596 17.5078 52.2534 17.5078ZM52.2534 18.5449C51.8198 18.5449 51.4682 18.6855 51.1987 18.9668C50.9331 19.248 50.7768 19.6602 50.7299 20.2031H53.6831C53.6792 19.8789 53.6245 19.5918 53.519 19.3418C53.4174 19.0918 53.2612 18.8965 53.0503 18.7559C52.8432 18.6152 52.5776 18.5449 52.2534 18.5449Z" fill="white"/>
<path d="M47.9643 19.752C47.9643 20.7168 47.7846 21.5234 47.4253 22.1719C47.0659 22.8164 46.5444 23.3027 45.8608 23.6309C45.1772 23.9551 44.353 24.1172 43.3882 24.1172H41.0092V15.5508H43.646C44.5327 15.5508 45.2983 15.7109 45.9428 16.0312C46.5874 16.3477 47.0854 16.8184 47.437 17.4434C47.7885 18.0645 47.9643 18.834 47.9643 19.752ZM46.4995 19.793C46.4995 19.0898 46.3882 18.5117 46.1655 18.0586C45.9467 17.6055 45.6225 17.2695 45.1928 17.0508C44.7671 16.8281 44.2417 16.7168 43.6167 16.7168H42.4155V22.9395H43.4116C44.4467 22.9395 45.2202 22.6758 45.7319 22.1484C46.2436 21.6211 46.4995 20.8359 46.4995 19.793Z" fill="white"/>
</g>
<defs>
<clipPath id="clip0_2_134">
<rect width="148" height="40" fill="white"/>
</clipPath>
</defs>
</svg>
